<?xml version="1.0" encoding="utf-8"?>
<!-- Generator: Adobe Illustrator 16.0.0, SVG Export Plug-In . SVG Version: 6.00 Build 0)  -->
<!DOCTYPE svg PUBLIC "-//W3C//DTD SVG 1.1//EN" "http://www.w3.org/Graphics/SVG/1.1/DTD/svg11.dtd">
<svg version="1.1" id="Capa_1" xmlns="http://www.w3.org/2000/svg" xmlns:xlink="http://www.w3.org/1999/xlink" x="0px" y="0px"
	 width="32px" height="32px" viewBox="0 0 32 32" enable-background="new 0 0 32 32" xml:space="preserve">
<rect x="20.355" y="19.258" transform="matrix(0.7069 -0.7073 0.7073 0.7069 -9.0692 21.9)" fill="#1C75A1" width="3.075" height="5.273"/>
<circle fill="#27A2DB" cx="12.18" cy="12.18" r="12.18"/>
<circle fill="#EBF0F3" cx="12.18" cy="12.18" r="9.91"/>
<g>
	<path fill="#2F4859" d="M24.176,21.682l-2.494,2.494c-0.559,0.56-0.559,1.467,0,2.025l5.379,5.379c0.56,0.56,1.467,0.56,2.025,0
		l2.494-2.494c0.56-0.559,0.56-1.466,0-2.025l-5.379-5.379C25.643,21.123,24.735,21.123,24.176,21.682z"/>
	<rect x="5.687" y="12.942" fill="#2F4859" width="2.685" height="4.583"/>
</g>
<rect x="10.178" y="9.412" fill="#44C4A1" width="2.685" height="8.113"/>
<rect x="14.669" y="5.882" fill="#E56353" width="2.685" height="11.642"/>
</svg>
